<svg xmlns="http://www.w3.org/2000/svg" xmlns:xlink="http://www.w3.org/1999/xlink" contentStyleType="text/css" height="636px" preserveAspectRatio="none" style="width:1342px;height:636px;background:#FFFFFF;" version="1.1" viewBox="0 0 1342 636" width="1342px" zoomAndPan="magnify"><defs/><g><!--cluster 2567a5ec9705eb7ac2c984033e06189d--><g id="cluster_2567a5ec9705eb7ac2c984033e06189d"><polygon fill="none" points="16,24.15,26,14.15,204,14.15,204,517.78,194,527.78,16,527.78,16,24.15" style="stroke:#181818;stroke-width:1.0;"/><line style="stroke:#181818;stroke-width:1.0;" x1="194" x2="204" y1="24.15" y2="14.15"/><line style="stroke:#181818;stroke-width:1.0;" x1="16" x2="194" y1="24.15" y2="24.15"/><line style="stroke:#181818;stroke-width:1.0;" x1="194" x2="194" y1="24.15" y2="527.78"/><text fill="#000000" font-family="sans-serif" font-size="14" font-weight="bold" lengthAdjust="spacing" textLength="35" x="88.5" y="40.1451">Web</text></g><!--cluster e8a48653851e28c69d0506508fb27fc5--><g id="cluster_e8a48653851e28c69d0506508fb27fc5"><polygon fill="none" points="615,16,625,6,843,6,843,517.78,833,527.78,615,527.78,615,16" style="stroke:#181818;stroke-width:1.0;"/><line style="stroke:#181818;stroke-width:1.0;" x1="833" x2="843" y1="16" y2="6"/><line style="stroke:#181818;stroke-width:1.0;" x1="615" x2="833" y1="16" y2="16"/><line style="stroke:#181818;stroke-width:1.0;" x1="833" x2="833" y1="16" y2="527.78"/><text fill="#000000" font-family="sans-serif" font-size="14" font-weight="bold" lengthAdjust="spacing" textLength="71" x="689.5" y="31.9951">Postgres</text></g><!--cluster 86a1b907d54bf7010394bf316e183e67--><g id="cluster_86a1b907d54bf7010394bf316e183e67"><polygon fill="none" points="867,16,877,6,1067,6,1067,517.78,1057,527.78,867,527.78,867,16" style="stroke:#181818;stroke-width:1.0;"/><line style="stroke:#181818;stroke-width:1.0;" x1="1057" x2="1067" y1="16" y2="6"/><line style="stroke:#181818;stroke-width:1.0;" x1="867" x2="1057" y1="16" y2="16"/><line style="stroke:#181818;stroke-width:1.0;" x1="1057" x2="1057" y1="16" y2="527.78"/><text fill="#000000" font-family="sans-serif" font-size="14" font-weight="bold" lengthAdjust="spacing" textLength="43" x="941.5" y="31.9951">Redis</text></g><!--cluster d48bac364ad5e16c8a0b13f87d5ae9d5--><g id="cluster_d48bac364ad5e16c8a0b13f87d5ae9d5"><polygon fill="none" points="1153,16,1163,6,1325,6,1325,517.78,1315,527.78,1153,527.78,1153,16" style="stroke:#181818;stroke-width:1.0;"/><line style="stroke:#181818;stroke-width:1.0;" x1="1315" x2="1325" y1="16" y2="6"/><line style="stroke:#181818;stroke-width:1.0;" x1="1153" x2="1315" y1="16" y2="16"/><line style="stroke:#181818;stroke-width:1.0;" x1="1315" x2="1315" y1="16" y2="527.78"/><text fill="#000000" font-family="sans-serif" font-size="14" font-weight="bold" lengthAdjust="spacing" textLength="51" x="1209.5" y="31.9951">Celery</text></g><!--cluster ee434023cf89d7dfb21f63d64f0f9d74--><g id="cluster_ee434023cf89d7dfb21f63d64f0f9d74"><polygon fill="none" points="228,16,238,6,440,6,440,517.78,430,527.78,228,527.78,228,16" style="stroke:#181818;stroke-width:1.0;"/><line style="stroke:#181818;stroke-width:1.0;" x1="430" x2="440" y1="16" y2="6"/><line style="stroke:#181818;stroke-width:1.0;" x1="228" x2="430" y1="16" y2="16"/><line style="stroke:#181818;stroke-width:1.0;" x1="430" x2="430" y1="16" y2="527.78"/><text fill="#000000" font-family="sans-serif" font-size="14" font-weight="bold" lengthAdjust="spacing" textLength="44" x="308" y="31.9951">Nginx</text></g><!--entity 3eaaf8e2abf2165b5065abb8e9c147a5--><g id="elem_3eaaf8e2abf2165b5065abb8e9c147a5"><rect fill="#F1F1F1" height="95.1875" rx="2.5" ry="2.5" style="stroke:#181818;stroke-width:0.5;" width="155" x="32.5" y="54.15"/><rect fill="#F1F1F1" height="10" style="stroke:#181818;stroke-width:0.5;" width="15" x="167.5" y="59.15"/><rect fill="#F1F1F1" height="2" style="stroke:#181818;stroke-width:0.5;" width="4" x="165.5" y="61.15"/><rect fill="#F1F1F1" height="2" style="stroke:#181818;stroke-width:0.5;" width="4" x="165.5" y="65.15"/><text fill="#000000" font-family="sans-serif" font-size="14" font-weight="bold" lengthAdjust="spacing" textLength="115" x="47.5" y="87.1451">gservicegroup</text><text fill="#000000" font-family="sans-serif" font-size="14" lengthAdjust="spacing" textLength="4" x="47.5" y="103.442">&#160;</text><text fill="#000000" font-family="sans-serif" font-size="14" lengthAdjust="spacing" textLength="99" x="47.5" y="119.7389">restart: always</text><text fill="#000000" font-family="sans-serif" font-size="14" lengthAdjust="spacing" textLength="4" x="47.5" y="136.0357">&#160;</text></g><!--entity c596e611321b1718ff6eb1900aec5471--><g id="elem_c596e611321b1718ff6eb1900aec5471"><rect fill="#F1F1F1" height="39.2969" rx="2.5" ry="2.5" style="stroke:#181818;stroke-width:0.5;" width="103" x="71.5" y="472.49"/><polygon fill="#F1F1F1" points="157.5,477.49,157.5,491.49,169.5,491.49,169.5,483.49,163.5,477.49,157.5,477.49" style="stroke:#181818;stroke-width:0.5;"/><line style="stroke:#181818;stroke-width:0.5;" x1="163.5" x2="163.5" y1="477.49" y2="483.49"/><line style="stroke:#181818;stroke-width:0.5;" x1="169.5" x2="163.5" y1="483.49" y2="483.49"/><text fill="#000000" font-family="sans-serif" font-size="14" lengthAdjust="spacing" textLength="73" x="81.5" y="498.4851">/app/static</text></g><!--entity 086f471fbe3ab94b73c9798cd7d205b7--><g id="elem_086f471fbe3ab94b73c9798cd7d205b7"><rect fill="#F1F1F1" height="111.4844" rx="2.5" ry="2.5" style="stroke:#181818;stroke-width:0.5;" width="196" x="631" y="46"/><rect fill="#F1F1F1" height="10" style="stroke:#181818;stroke-width:0.5;" width="15" x="807" y="51"/><rect fill="#F1F1F1" height="2" style="stroke:#181818;stroke-width:0.5;" width="4" x="805" y="53"/><rect fill="#F1F1F1" height="2" style="stroke:#181818;stroke-width:0.5;" width="4" x="805" y="57"/><text fill="#000000" font-family="sans-serif" font-size="14" font-weight="bold" lengthAdjust="spacing" textLength="71" x="646" y="78.9951">postgres</text><text fill="#000000" font-family="sans-serif" font-size="14" lengthAdjust="spacing" textLength="4" x="646" y="95.292">&#160;</text><text fill="#000000" font-family="sans-serif" font-size="14" lengthAdjust="spacing" textLength="156" x="646" y="111.5889">image: postgres:latest</text><text fill="#000000" font-family="sans-serif" font-size="14" lengthAdjust="spacing" textLength="99" x="646" y="127.8857">restart: always</text><text fill="#000000" font-family="sans-serif" font-size="14" lengthAdjust="spacing" textLength="4" x="646" y="144.1826">&#160;</text></g><!--entity f5c6c94d1b14b1ea2ec9016bd040969e--><g id="elem_f5c6c94d1b14b1ea2ec9016bd040969e"><rect fill="#F1F1F1" height="39.2969" rx="2.5" ry="2.5" style="stroke:#181818;stroke-width:0.5;" width="194" x="632" y="472.49"/><polygon fill="#F1F1F1" points="809,477.49,809,491.49,821,491.49,821,483.49,815,477.49,809,477.49" style="stroke:#181818;stroke-width:0.5;"/><line style="stroke:#181818;stroke-width:0.5;" x1="815" x2="815" y1="477.49" y2="483.49"/><line style="stroke:#181818;stroke-width:0.5;" x1="821" x2="815" y1="483.49" y2="483.49"/><text fill="#000000" font-family="sans-serif" font-size="14" lengthAdjust="spacing" textLength="164" x="642" y="498.4851">/var/lib/postgresql/data/</text></g><!--entity 3c217ea98bfddc0f9ff1c849de325d93--><g id="elem_3c217ea98bfddc0f9ff1c849de325d93"><rect fill="#F1F1F1" height="111.4844" rx="2.5" ry="2.5" style="stroke:#181818;stroke-width:0.5;" width="168" x="883" y="46"/><rect fill="#F1F1F1" height="10" style="stroke:#181818;stroke-width:0.5;" width="15" x="1031" y="51"/><rect fill="#F1F1F1" height="2" style="stroke:#181818;stroke-width:0.5;" width="4" x="1029" y="53"/><rect fill="#F1F1F1" height="2" style="stroke:#181818;stroke-width:0.5;" width="4" x="1029" y="57"/><text fill="#000000" font-family="sans-serif" font-size="14" font-weight="bold" lengthAdjust="spacing" textLength="40" x="898" y="78.9951">redis</text><text fill="#000000" font-family="sans-serif" font-size="14" lengthAdjust="spacing" textLength="4" x="898" y="95.292">&#160;</text><text fill="#000000" font-family="sans-serif" font-size="14" lengthAdjust="spacing" textLength="128" x="898" y="111.5889">image: redis:latest</text><text fill="#000000" font-family="sans-serif" font-size="14" lengthAdjust="spacing" textLength="99" x="898" y="127.8857">restart: always</text><text fill="#000000" font-family="sans-serif" font-size="14" lengthAdjust="spacing" textLength="4" x="898" y="144.1826">&#160;</text></g><!--entity 09876deab5af8de0c168ec3aa053742d--><g id="elem_09876deab5af8de0c168ec3aa053742d"><ellipse cx="1024" cy="247.49" fill="#F1F1F1" rx="8" ry="8" style="stroke:#181818;stroke-width:0.5;"/><text fill="#000000" font-family="sans-serif" font-size="14" lengthAdjust="spacing" textLength="36" x="1006" y="277.4851">6379</text></g><!--entity 4ee201798dddc2e46fd8eed211348fce--><g id="elem_4ee201798dddc2e46fd8eed211348fce"><rect fill="#F1F1F1" height="39.2969" rx="2.5" ry="2.5" style="stroke:#181818;stroke-width:0.5;" width="65" x="928.5" y="472.49"/><polygon fill="#F1F1F1" points="976.5,477.49,976.5,491.49,988.5,491.49,988.5,483.49,982.5,477.49,976.5,477.49" style="stroke:#181818;stroke-width:0.5;"/><line style="stroke:#181818;stroke-width:0.5;" x1="982.5" x2="982.5" y1="477.49" y2="483.49"/><line style="stroke:#181818;stroke-width:0.5;" x1="988.5" x2="982.5" y1="483.49" y2="483.49"/><text fill="#000000" font-family="sans-serif" font-size="14" lengthAdjust="spacing" textLength="35" x="938.5" y="498.4851">/data</text></g><!--entity 08b7fccb45858be7a476d4e427762e0d--><g id="elem_08b7fccb45858be7a476d4e427762e0d"><rect fill="#F1F1F1" height="111.4844" rx="2.5" ry="2.5" style="stroke:#181818;stroke-width:0.5;" width="139" x="1169.5" y="46"/><rect fill="#F1F1F1" height="10" style="stroke:#181818;stroke-width:0.5;" width="15" x="1288.5" y="51"/><rect fill="#F1F1F1" height="2" style="stroke:#181818;stroke-width:0.5;" width="4" x="1286.5" y="53"/><rect fill="#F1F1F1" height="2" style="stroke:#181818;stroke-width:0.5;" width="4" x="1286.5" y="57"/><text fill="#000000" font-family="sans-serif" font-size="14" font-weight="bold" lengthAdjust="spacing" textLength="49" x="1184.5" y="78.9951">celery</text><text fill="#000000" font-family="sans-serif" font-size="14" lengthAdjust="spacing" textLength="4" x="1184.5" y="95.292">&#160;</text><text fill="#000000" font-family="sans-serif" font-size="14" lengthAdjust="spacing" textLength="92" x="1184.5" y="111.5889">image: celery</text><text fill="#000000" font-family="sans-serif" font-size="14" lengthAdjust="spacing" textLength="99" x="1184.5" y="127.8857">restart: always</text><text fill="#000000" font-family="sans-serif" font-size="14" lengthAdjust="spacing" textLength="4" x="1184.5" y="144.1826">&#160;</text></g><!--entity dbfab56604b171501410f65b0bb1e8be--><g id="elem_dbfab56604b171501410f65b0bb1e8be"><rect fill="#F1F1F1" height="39.2969" rx="2.5" ry="2.5" style="stroke:#181818;stroke-width:0.5;" width="61" x="1208.5" y="472.49"/><polygon fill="#F1F1F1" points="1252.5,477.49,1252.5,491.49,1264.5,491.49,1264.5,483.49,1258.5,477.49,1252.5,477.49" style="stroke:#181818;stroke-width:0.5;"/><line style="stroke:#181818;stroke-width:0.5;" x1="1258.5" x2="1258.5" y1="477.49" y2="483.49"/><line style="stroke:#181818;stroke-width:0.5;" x1="1264.5" x2="1258.5" y1="483.49" y2="483.49"/><text fill="#000000" font-family="sans-serif" font-size="14" lengthAdjust="spacing" textLength="31" x="1218.5" y="498.4851">/app</text></g><!--entity af7a7f0b3b2e57bd500b4dc604f1838f--><g id="elem_af7a7f0b3b2e57bd500b4dc604f1838f"><rect fill="#F1F1F1" height="111.4844" rx="2.5" ry="2.5" style="stroke:#181818;stroke-width:0.5;" width="171" x="244.5" y="46"/><rect fill="#F1F1F1" height="10" style="stroke:#181818;stroke-width:0.5;" width="15" x="395.5" y="51"/><rect fill="#F1F1F1" height="2" style="stroke:#181818;stroke-width:0.5;" width="4" x="393.5" y="53"/><rect fill="#F1F1F1" height="2" style="stroke:#181818;stroke-width:0.5;" width="4" x="393.5" y="57"/><text fill="#000000" font-family="sans-serif" font-size="14" font-weight="bold" lengthAdjust="spacing" textLength="43" x="259.5" y="78.9951">nginx</text><text fill="#000000" font-family="sans-serif" font-size="14" lengthAdjust="spacing" textLength="4" x="259.5" y="95.292">&#160;</text><text fill="#000000" font-family="sans-serif" font-size="14" lengthAdjust="spacing" textLength="131" x="259.5" y="111.5889">image: nginx:latest</text><text fill="#000000" font-family="sans-serif" font-size="14" lengthAdjust="spacing" textLength="99" x="259.5" y="127.8857">restart: always</text><text fill="#000000" font-family="sans-serif" font-size="14" lengthAdjust="spacing" textLength="4" x="259.5" y="144.1826">&#160;</text></g><!--entity 97b04832e42a04c7beb04c21e560b3fb--><g id="elem_97b04832e42a04c7beb04c21e560b3fb"><ellipse cx="308" cy="247.49" fill="#F1F1F1" rx="8" ry="8" style="stroke:#181818;stroke-width:0.5;"/><text fill="#000000" font-family="sans-serif" font-size="14" lengthAdjust="spacing" textLength="18" x="299" y="277.4851">80</text></g><!--entity 3a61031652ff80665f419f821c1ac407--><g id="elem_3a61031652ff80665f419f821c1ac407"><ellipse cx="397" cy="247.49" fill="#F1F1F1" rx="8" ry="8" style="stroke:#181818;stroke-width:0.5;"/><text fill="#000000" font-family="sans-serif" font-size="14" lengthAdjust="spacing" textLength="27" x="383.5" y="277.4851">443</text></g><!--entity 71184b3a82501433f4dc5c8c6c31b3a8--><g id="elem_71184b3a82501433f4dc5c8c6c31b3a8"><rect fill="#F1F1F1" height="39.2969" rx="2.5" ry="2.5" style="stroke:#181818;stroke-width:0.5;" width="103" x="244.5" y="472.49"/><polygon fill="#F1F1F1" points="330.5,477.49,330.5,491.49,342.5,491.49,342.5,483.49,336.5,477.49,330.5,477.49" style="stroke:#181818;stroke-width:0.5;"/><line style="stroke:#181818;stroke-width:0.5;" x1="336.5" x2="336.5" y1="477.49" y2="483.49"/><line style="stroke:#181818;stroke-width:0.5;" x1="342.5" x2="336.5" y1="483.49" y2="483.49"/><text fill="#000000" font-family="sans-serif" font-size="14" lengthAdjust="spacing" textLength="73" x="254.5" y="498.4851">/app/static</text></g><!--entity 02333efa2bf4b0344924cb9dbec6e9b2--><g id="elem_02333efa2bf4b0344924cb9dbec6e9b2"><rect fill="#F1F1F1" height="39.2969" rx="2.5" ry="2.5" style="stroke:#181818;stroke-width:0.5;" width="124" x="133" y="590.78"/><polygon fill="#F1F1F1" points="240,595.78,240,609.78,252,609.78,252,601.78,246,595.78,240,595.78" style="stroke:#181818;stroke-width:0.5;"/><line style="stroke:#181818;stroke-width:0.5;" x1="246" x2="246" y1="595.78" y2="601.78"/><line style="stroke:#181818;stroke-width:0.5;" x1="252" x2="246" y1="601.78" y2="601.78"/><text fill="#000000" font-family="sans-serif" font-size="14" lengthAdjust="spacing" textLength="94" x="143" y="616.7751">static_volume</text></g><!--entity 1b3bff591894c324e6d0194254b68417--><g id="elem_1b3bff591894c324e6d0194254b68417"><rect fill="#F1F1F1" height="39.2969" rx="2.5" ry="2.5" style="stroke:#181818;stroke-width:0.5;" width="129" x="664.5" y="590.78"/><polygon fill="#F1F1F1" points="776.5,595.78,776.5,609.78,788.5,609.78,788.5,601.78,782.5,595.78,776.5,595.78" style="stroke:#181818;stroke-width:0.5;"/><line style="stroke:#181818;stroke-width:0.5;" x1="782.5" x2="782.5" y1="595.78" y2="601.78"/><line style="stroke:#181818;stroke-width:0.5;" x1="788.5" x2="782.5" y1="601.78" y2="601.78"/><text fill="#000000" font-family="sans-serif" font-size="14" lengthAdjust="spacing" textLength="99" x="674.5" y="616.7751">postgres_data</text></g><!--entity 8df1c849f3292874749da843ab806278--><g id="elem_8df1c849f3292874749da843ab806278"><rect fill="#F1F1F1" height="39.2969" rx="2.5" ry="2.5" style="stroke:#181818;stroke-width:0.5;" width="64" x="929" y="590.78"/><polygon fill="#F1F1F1" points="976,595.78,976,609.78,988,609.78,988,601.78,982,595.78,976,595.78" style="stroke:#181818;stroke-width:0.5;"/><line style="stroke:#181818;stroke-width:0.5;" x1="982" x2="982" y1="595.78" y2="601.78"/><line style="stroke:#181818;stroke-width:0.5;" x1="988" x2="982" y1="601.78" y2="601.78"/><text fill="#000000" font-family="sans-serif" font-size="14" lengthAdjust="spacing" textLength="34" x="939" y="616.7751">redis</text></g><!--entity 58b9e70b65a77700ba66e9c64d6b9f89--><g id="elem_58b9e70b65a77700ba66e9c64d6b9f89"><rect fill="#F1F1F1" height="39.2969" rx="2.5" ry="2.5" style="stroke:#181818;stroke-width:0.5;" width="34" x="1222" y="590.78"/><polygon fill="#F1F1F1" points="1239,595.78,1239,609.78,1251,609.78,1251,601.78,1245,595.78,1239,595.78" style="stroke:#181818;stroke-width:0.5;"/><line style="stroke:#181818;stroke-width:0.5;" x1="1245" x2="1245" y1="595.78" y2="601.78"/><line style="stroke:#181818;stroke-width:0.5;" x1="1251" x2="1245" y1="601.78" y2="601.78"/><text fill="#000000" font-family="sans-serif" font-size="14" lengthAdjust="spacing" textLength="4" x="1232" y="616.7751">.</text></g><!--entity c896127ab1831787795a6fc7c8465c9a--><g id="elem_c896127ab1831787795a6fc7c8465c9a"><ellipse cx="1110" cy="382.49" fill="#F1F1F1" rx="8" ry="8" style="stroke:#181818;stroke-width:0.5;"/><text fill="#000000" font-family="sans-serif" font-size="14" lengthAdjust="spacing" textLength="36" x="1092" y="412.4851">6379</text></g><!--entity dba3f4d0bb5aa6fcfa18da2c1f7a9775--><g id="elem_dba3f4d0bb5aa6fcfa18da2c1f7a9775"><ellipse cx="483" cy="382.49" fill="#F1F1F1" rx="8" ry="8" style="stroke:#181818;stroke-width:0.5;"/><text fill="#000000" font-family="sans-serif" font-size="14" lengthAdjust="spacing" textLength="18" x="474" y="412.4851">80</text></g><!--entity 8a81c9bb0ec23d07684c1472053c60fe--><g id="elem_8a81c9bb0ec23d07684c1472053c60fe"><ellipse cx="572" cy="382.49" fill="#F1F1F1" rx="8" ry="8" style="stroke:#181818;stroke-width:0.5;"/><text fill="#000000" font-family="sans-serif" font-size="14" lengthAdjust="spacing" textLength="27" x="558.5" y="412.4851">443</text></g><!--link c596e611321b1718ff6eb1900aec5471 to 02333efa2bf4b0344924cb9dbec6e9b2--><g id="link_c596e611321b1718ff6eb1900aec5471_02333efa2bf4b0344924cb9dbec6e9b2"><path codeLine="61" d="M134.73,512.08 C148.12,533.7 169.89,568.87 183.28,590.5 " fill="none" id="c596e611321b1718ff6eb1900aec5471-02333efa2bf4b0344924cb9dbec6e9b2" style="stroke:#181818;stroke-width:1.0;"/><text fill="#000000" font-family="sans-serif" font-size="13" lengthAdjust="spacing" textLength="14" x="164" y="556.8469">rw</text></g><!--link 3eaaf8e2abf2165b5065abb8e9c147a5 to c596e611321b1718ff6eb1900aec5471--><g id="link_3eaaf8e2abf2165b5065abb8e9c147a5_c596e611321b1718ff6eb1900aec5471"><path codeLine="62" d="M111.57,149.59 C114.44,235.34 120.2193,408.0734 122.1693,466.3334 " fill="none" id="3eaaf8e2abf2165b5065abb8e9c147a5-to-c596e611321b1718ff6eb1900aec5471" style="stroke:#181818;stroke-width:1.0;stroke-dasharray:7.0,7.0;"/><polygon fill="#181818" points="122.37,472.33,126.0667,463.2012,122.2027,467.3328,118.0712,463.4688,122.37,472.33" style="stroke:#181818;stroke-width:1.0;"/><text fill="#000000" font-family="sans-serif" font-size="13" lengthAdjust="spacing" textLength="23" x="118" y="319.5569">use</text></g><!--link f5c6c94d1b14b1ea2ec9016bd040969e to 1b3bff591894c324e6d0194254b68417--><g id="link_f5c6c94d1b14b1ea2ec9016bd040969e_1b3bff591894c324e6d0194254b68417"><path codeLine="63" d="M729,512.08 C729,533.7 729,568.87 729,590.5 " fill="none" id="f5c6c94d1b14b1ea2ec9016bd040969e-1b3bff591894c324e6d0194254b68417" style="stroke:#181818;stroke-width:1.0;"/><text fill="#000000" font-family="sans-serif" font-size="13" lengthAdjust="spacing" textLength="14" x="730" y="556.8469">rw</text></g><!--link 086f471fbe3ab94b73c9798cd7d205b7 to f5c6c94d1b14b1ea2ec9016bd040969e--><g id="link_086f471fbe3ab94b73c9798cd7d205b7_f5c6c94d1b14b1ea2ec9016bd040969e"><path codeLine="64" d="M729,157.98 C729,246.36 729,409.37 729,466.06 " fill="none" id="086f471fbe3ab94b73c9798cd7d205b7-to-f5c6c94d1b14b1ea2ec9016bd040969e" style="stroke:#181818;stroke-width:1.0;stroke-dasharray:7.0,7.0;"/><polygon fill="#181818" points="729,472.06,733,463.06,729,467.06,725,463.06,729,472.06" style="stroke:#181818;stroke-width:1.0;"/><text fill="#000000" font-family="sans-serif" font-size="13" lengthAdjust="spacing" textLength="23" x="730" y="319.5569">use</text></g><!--link 3c217ea98bfddc0f9ff1c849de325d93 to 09876deab5af8de0c168ec3aa053742d--><g id="link_3c217ea98bfddc0f9ff1c849de325d93_09876deab5af8de0c168ec3aa053742d"><path codeLine="65" d="M988.87,157.91 C1001.06,188.63 1014.95,223.66 1020.96,238.82 " fill="none" id="3c217ea98bfddc0f9ff1c849de325d93-09876deab5af8de0c168ec3aa053742d" style="stroke:#181818;stroke-width:1.0;"/></g><!--link 09876deab5af8de0c168ec3aa053742d to c896127ab1831787795a6fc7c8465c9a--><g id="link_09876deab5af8de0c168ec3aa053742d_c896127ab1831787795a6fc7c8465c9a"><path codeLine="66" d="M1029.12,256.41 C1044.45,280.12 1089.86,350.34 1105.01,373.77 " fill="none" id="09876deab5af8de0c168ec3aa053742d-c896127ab1831787795a6fc7c8465c9a" style="stroke:#181818;stroke-width:1.0;"/></g><!--link 4ee201798dddc2e46fd8eed211348fce to 8df1c849f3292874749da843ab806278--><g id="link_4ee201798dddc2e46fd8eed211348fce_8df1c849f3292874749da843ab806278"><path codeLine="67" d="M961,512.08 C961,533.7 961,568.87 961,590.5 " fill="none" id="4ee201798dddc2e46fd8eed211348fce-8df1c849f3292874749da843ab806278" style="stroke:#181818;stroke-width:1.0;"/><text fill="#000000" font-family="sans-serif" font-size="13" lengthAdjust="spacing" textLength="14" x="962" y="556.8469">rw</text></g><!--link 3c217ea98bfddc0f9ff1c849de325d93 to 4ee201798dddc2e46fd8eed211348fce--><g id="link_3c217ea98bfddc0f9ff1c849de325d93_4ee201798dddc2e46fd8eed211348fce"><path codeLine="68" d="M966.15,157.98 C964.78,246.36 962.2631,409.3707 961.3831,466.0607 " fill="none" id="3c217ea98bfddc0f9ff1c849de325d93-to-4ee201798dddc2e46fd8eed211348fce" style="stroke:#181818;stroke-width:1.0;stroke-dasharray:7.0,7.0;"/><polygon fill="#181818" points="961.29,472.06,965.4292,463.1232,961.3676,467.0606,957.4302,462.999,961.29,472.06" style="stroke:#181818;stroke-width:1.0;"/><text fill="#000000" font-family="sans-serif" font-size="13" lengthAdjust="spacing" textLength="23" x="964" y="319.5569">use</text></g><!--link dbfab56604b171501410f65b0bb1e8be to 58b9e70b65a77700ba66e9c64d6b9f89--><g id="link_dbfab56604b171501410f65b0bb1e8be_58b9e70b65a77700ba66e9c64d6b9f89"><path codeLine="69" d="M1239,512.08 C1239,533.7 1239,568.87 1239,590.5 " fill="none" id="dbfab56604b171501410f65b0bb1e8be-58b9e70b65a77700ba66e9c64d6b9f89" style="stroke:#181818;stroke-width:1.0;"/><text fill="#000000" font-family="sans-serif" font-size="13" lengthAdjust="spacing" textLength="14" x="1240" y="556.8469">rw</text></g><!--link 08b7fccb45858be7a476d4e427762e0d to dbfab56604b171501410f65b0bb1e8be--><g id="link_08b7fccb45858be7a476d4e427762e0d_dbfab56604b171501410f65b0bb1e8be"><path codeLine="70" d="M1239,157.98 C1239,246.36 1239,409.37 1239,466.06 " fill="none" id="08b7fccb45858be7a476d4e427762e0d-to-dbfab56604b171501410f65b0bb1e8be" style="stroke:#181818;stroke-width:1.0;stroke-dasharray:7.0,7.0;"/><polygon fill="#181818" points="1239,472.06,1243,463.06,1239,467.06,1235,463.06,1239,472.06" style="stroke:#181818;stroke-width:1.0;"/><text fill="#000000" font-family="sans-serif" font-size="13" lengthAdjust="spacing" textLength="23" x="1240" y="319.5569">use</text></g><!--link af7a7f0b3b2e57bd500b4dc604f1838f to 97b04832e42a04c7beb04c21e560b3fb--><g id="link_af7a7f0b3b2e57bd500b4dc604f1838f_97b04832e42a04c7beb04c21e560b3fb"><path codeLine="71" d="M321.56,157.91 C316.86,188.63 311.49,223.66 309.17,238.82 " fill="none" id="af7a7f0b3b2e57bd500b4dc604f1838f-97b04832e42a04c7beb04c21e560b3fb" style="stroke:#181818;stroke-width:1.0;"/></g><!--link 97b04832e42a04c7beb04c21e560b3fb to dba3f4d0bb5aa6fcfa18da2c1f7a9775--><g id="link_97b04832e42a04c7beb04c21e560b3fb_dba3f4d0bb5aa6fcfa18da2c1f7a9775"><path codeLine="72" d="M316.92,255.26 C347.01,278.13 444.56,352.27 474.31,374.88 " fill="none" id="97b04832e42a04c7beb04c21e560b3fb-dba3f4d0bb5aa6fcfa18da2c1f7a9775" style="stroke:#181818;stroke-width:1.0;"/></g><!--link af7a7f0b3b2e57bd500b4dc604f1838f to 3a61031652ff80665f419f821c1ac407--><g id="link_af7a7f0b3b2e57bd500b4dc604f1838f_3a61031652ff80665f419f821c1ac407"><path codeLine="73" d="M355.71,157.91 C370.03,188.63 386.36,223.66 393.43,238.82 " fill="none" id="af7a7f0b3b2e57bd500b4dc604f1838f-3a61031652ff80665f419f821c1ac407" style="stroke:#181818;stroke-width:1.0;"/></g><!--link 3a61031652ff80665f419f821c1ac407 to 8a81c9bb0ec23d07684c1472053c60fe--><g id="link_3a61031652ff80665f419f821c1ac407_8a81c9bb0ec23d07684c1472053c60fe"><path codeLine="74" d="M405.92,255.26 C436.01,278.13 533.56,352.27 563.31,374.88 " fill="none" id="3a61031652ff80665f419f821c1ac407-8a81c9bb0ec23d07684c1472053c60fe" style="stroke:#181818;stroke-width:1.0;"/></g><!--link 71184b3a82501433f4dc5c8c6c31b3a8 to 02333efa2bf4b0344924cb9dbec6e9b2--><g id="link_71184b3a82501433f4dc5c8c6c31b3a8_02333efa2bf4b0344924cb9dbec6e9b2"><path codeLine="75" d="M279.55,512.08 C260.77,533.7 230.22,568.87 211.45,590.5 " fill="none" id="71184b3a82501433f4dc5c8c6c31b3a8-02333efa2bf4b0344924cb9dbec6e9b2" style="stroke:#181818;stroke-width:1.0;"/><text fill="#000000" font-family="sans-serif" font-size="13" lengthAdjust="spacing" textLength="14" x="252" y="556.8469">rw</text></g><!--link af7a7f0b3b2e57bd500b4dc604f1838f to 71184b3a82501433f4dc5c8c6c31b3a8--><g id="link_af7a7f0b3b2e57bd500b4dc604f1838f_71184b3a82501433f4dc5c8c6c31b3a8"><path codeLine="76" d="M290.85,157.88 C279.95,176.28 269.57,197.47 264,218.49 C239.33,311.54 271.5552,421.8308 287.0752,466.6108 " fill="none" id="af7a7f0b3b2e57bd500b4dc604f1838f-to-71184b3a82501433f4dc5c8c6c31b3a8" style="stroke:#181818;stroke-width:1.0;stroke-dasharray:7.0,7.0;"/><polygon fill="#181818" points="289.04,472.28,289.8722,462.4664,287.4026,467.5557,282.3133,465.0861,289.04,472.28" style="stroke:#181818;stroke-width:1.0;"/><text fill="#000000" font-family="sans-serif" font-size="13" lengthAdjust="spacing" textLength="23" x="257" y="319.5569">use</text></g><!--SRC=[bLLDRsCt3BpxLppur0ROM1-KAENGI-z5qKiFHR4W9SemuDYfxIIxAFhVooVRYTC2g_QePv6QuGp7jDtkNnytNpQxzMAthp8jVnLUJdISN8X8GKf64uIHYYivWV5UJBGfr-dFnLJsZq_xdUnEanUYbiGHDsTZu61Y8EOakLZGFjDlYxkxzL4EBviYwyF- -UdkRh4uoF54XzF3HDjN-dfSB7vVw77Jg9ocvOgUdbRw-sbJEg0ISfHehNUMBThKMXIssHYI4W3jugyBWv_tnzDQM_SgIGGf1f-25PTApDNCs4ngxB2Ly966IR5fgyRYYJCmUkMVKwbOdGcCdSRJfV_COFD8QtcOhfyUjdHIJWDYBtHORJUykbRziLrLEj6g0swXn9AXAabWA-HK0cCZLmCcnonlD7-HkZbpJ94iPuCr03SqrdY5thoDOfENYF-GgZYBGZbngxMObbkp9K6kubsesNUEXxdv3S5-_WQxxxwVbj5ZxdXCJXYh40VrH1LJR4nIF9497i7LsrdCn7iHY3XZTTXLKJc1s6eIgKu5XzJAE-yVPIk7hxscGc8gFWBL83QMH8QjRqadGPBhlyHbLRmmX1GI2n8eIX1mYD69gPruwTrlc9y_ZArw1iHDMSTeOBPeC1QiQReEXbLAVVEDn4_hpUxBsQ027eppfUbIOLLRsXPzZT1KcehmaGCr96o6FJi9o3KOmr2BFjXKwzGwXztS_8P2Fm_4IwQZoSW6ajVvEp9Ga4NFQXW9KHzjtEy2-7xPKrIlwRgxrfA9CJImkILdYwK21h-np6Xj0lQKt3maxvkI24NtitWxVzP1lHUVwpw_xBVFZt9scFCQH8qSDs3Z0RA3mhcob2YPtKtnTSa-lpbD7-3MGjOKW-8TIAp6Pd2wFJ61lOLzUD-nUjwIvbrs2G5rOIY1neGoTvXkYkvxWLei2nhM74H4bOcYGYiHQcGTKlwuCYNbQ1qIgueM4s8E55j1VJA6akbMeyeqpqiz5MY-rCYcIgvOzKP631yqIfHioSn6YlFLe3AS4rdJpAjhcYn6iJfzgf-6yvuUT5QloyNmR-3-ljxV_p3CyhdVyr6MYr4QTdGZGQ_eXkb-GJTyz8fk6ALzTgCq75teNOO66ULdxp9oyPkE8sANIGqVlKvg58mTtMXbtdKS1Fa5tV3HAxfXgixeXj4ukj2x39VtFs4P9k_emjaDesmOfVJ_oeOXiOjgmqSlglqD]--></g></svg>